<svg width="17" height="17" viewBox="0 0 17 17" fill="none" xmlns="http://www.w3.org/2000/svg">
<g clip-path="url(#clip0_892_2508)">
<path fill-rule="evenodd" clip-rule="evenodd" d="M8.47616 0.0491943C4.06555 0.0491943 0.5 3.64103 0.5 8.08462C0.5 11.6366 2.78457 14.6433 5.95388 15.7075C6.35012 15.7875 6.49527 15.5346 6.49527 15.3218C6.49527 15.1356 6.4822 14.497 6.4822 13.8317C4.26343 14.3107 3.80139 12.8738 3.80139 12.8738C3.44482 11.9426 2.91649 11.7032 2.91649 11.7032C2.19029 11.211 2.96939 11.211 2.96939 11.211C3.77494 11.2642 4.19763 12.0358 4.19763 12.0358C4.91061 13.2596 6.05951 12.9138 6.52171 12.7009C6.58767 12.1821 6.7991 11.8229 7.02359 11.6234C5.25396 11.4371 3.39208 10.7454 3.39208 7.65883C3.39208 6.78079 3.70882 6.06242 4.21069 5.50373C4.13151 5.30421 3.85412 4.47924 4.29004 3.37507C4.29004 3.37507 4.96351 3.16217 6.48204 4.19989C7.13218 4.024 7.80265 3.93452 8.47616 3.93377C9.14963 3.93377 9.83616 4.02699 10.4701 4.19989C11.9888 3.16217 12.6623 3.37507 12.6623 3.37507C13.0982 4.47924 12.8207 5.30421 12.7415 5.50373C13.2566 6.06242 13.5602 6.78079 13.5602 7.65883C13.5602 10.7454 11.6984 11.4237 9.91551 11.6234C10.2061 11.8761 10.4569 12.355 10.4569 13.1134C10.4569 14.1909 10.4438 15.0557 10.4438 15.3217C10.4438 15.5346 10.5891 15.7875 10.9852 15.7076C14.1545 14.6432 16.4391 11.6366 16.4391 8.08462C16.4522 3.64103 12.8736 0.0491943 8.47616 0.0491943Z" fill="currentColor" />
</g>
<defs>
<clipPath id="clip0_892_2508">
<rect width="16" height="16" fill="white" transform="translate(0.5 0.0491943)"/>
</clipPath>
</defs>
</svg>
