<svg width="305" height="21" viewBox="0 0 305 21" fill="none" xmlns="http://www.w3.org/2000/svg">
<path d="M0.56 16C0.32 16 0.22 15.84 0.3 15.64L6.08 1.56C6.14 1.4 6.28 1.32 6.44 1.32H8.96C9.14 1.32 9.26 1.4 9.32 1.56L15.1 15.64C15.18 15.84 15.08 16 14.86 16H11.5C11.32 16 11.2 15.92 11.14 15.74L10.34 13.48H5L4.2 15.74C4.14 15.92 4.02 16 3.84 16H0.56ZM6.06 10.44H9.26L7.64 5.92L6.06 10.44ZM16.6306 16C16.4306 16 16.3106 15.88 16.3106 15.68V1.64C16.3106 1.44 16.4306 1.32 16.6306 1.32H22.0506C25.7906 1.32 27.2506 2.9 27.2506 5.16C27.2506 6.54 26.5506 7.68 25.1906 8.26C27.0706 8.78 27.9906 10.08 27.9906 11.7C27.9906 14.44 26.2106 16 21.9906 16H16.6306ZM21.9506 4.32H19.9306V7.16H21.9506C22.9106 7.16 23.6106 6.7 23.6106 5.74C23.6106 4.78 22.9106 4.32 21.9506 4.32ZM22.2106 9.9H19.9306V13H22.2106C23.4106 13 24.1706 12.48 24.1706 11.44C24.1706 10.4 23.4106 9.9 22.2106 9.9ZM36.4044 16.28C31.9444 16.28 28.9844 13.22 28.9844 8.66C28.9844 4.1 32.1644 1.04 36.4244 1.04C39.6244 1.04 41.8444 2.52 42.8844 5.14C42.9644 5.34 42.8844 5.5 42.6844 5.54L39.6244 6.36C39.4644 6.42 39.3244 6.36 39.2244 6.2C38.6244 5.18 37.6844 4.66 36.4244 4.66C34.2844 4.66 32.8444 6.22 32.8444 8.66C32.8444 11.12 34.3044 12.66 36.4244 12.66C37.8844 12.66 39.0444 12.06 39.5844 10.58C39.6644 10.38 39.7844 10.3 39.9644 10.36L43.0044 11.16C43.2044 11.22 43.2844 11.34 43.2444 11.5C42.3844 14.3 39.9244 16.28 36.4044 16.28ZM53.6764 16C53.5164 16 53.3964 15.92 53.3164 15.76L47.6164 1.68C47.5364 1.48 47.6564 1.32 47.8764 1.32H51.4564C51.6364 1.32 51.7764 1.4 51.8364 1.58L54.9964 10.74L58.0964 1.58C58.1564 1.4 58.2964 1.32 58.4764 1.32H62.0164C62.2364 1.32 62.3564 1.48 62.2564 1.68L56.5764 15.76C56.4964 15.92 56.3764 16 56.1964 16H53.6764ZM64.9522 3.98C63.8322 3.98 62.9722 3.24 62.9722 2.12C62.9722 0.999999 63.8322 0.239999 64.9522 0.239999C66.0722 0.239999 66.9322 0.999999 66.9322 2.12C66.9322 3.24 66.0722 3.98 64.9522 3.98ZM63.4722 16C63.2722 16 63.1522 15.88 63.1522 15.68V5.68C63.1522 5.5 63.2722 5.38 63.4722 5.38H66.4322C66.6322 5.38 66.7522 5.5 66.7522 5.68V15.68C66.7522 15.88 66.6322 16 66.4322 16H63.4722ZM68.8902 16C68.6902 16 68.5702 15.88 68.5702 15.68V5.68C68.5702 5.5 68.6902 5.38 68.8902 5.38H71.3902C71.5902 5.38 71.7302 5.48 71.7302 5.68L71.7902 6.76C72.5102 5.7 73.6502 5.24 74.9102 5.24C75.1902 5.24 75.4502 5.26 75.6702 5.32C75.8502 5.38 75.9502 5.5 75.9502 5.68V8.42C75.9502 8.62 75.8102 8.72 75.5902 8.68C75.3102 8.64 74.9902 8.58 74.5702 8.58C73.5102 8.58 72.1702 9.26 72.1702 10.82V15.68C72.1702 15.88 72.0502 16 71.8502 16H68.8902ZM81.8638 16.2C79.1838 16.2 78.0038 14.54 78.0038 11.5V8.46H76.7438C76.5438 8.46 76.4238 8.34 76.4238 8.14V5.74C76.4238 5.56 76.5438 5.42 76.7438 5.42H78.0038V2.92C78.0038 2.72 78.1238 2.6 78.3238 2.6H81.2838C81.4837 2.6 81.6038 2.72 81.6038 2.92V5.42H83.7238C83.9238 5.42 84.0438 5.56 84.0438 5.74V8.14C84.0438 8.34 83.9238 8.46 83.7238 8.46H81.6038V11.84C81.6038 12.74 81.8438 13.16 82.4038 13.16C82.6438 13.16 82.8038 13.06 82.9838 12.78C83.0838 12.64 83.1838 12.6 83.3838 12.7L85.4038 13.56C85.5838 13.64 85.6438 13.82 85.5238 14.06C84.7638 15.58 83.2638 16.2 81.8638 16.2ZM90.0625 16.2C87.5625 16.2 86.1425 14.72 86.1425 12.3V5.68C86.1425 5.5 86.2625 5.38 86.4625 5.38H89.4225C89.6225 5.38 89.7425 5.5 89.7425 5.68V10.96C89.7425 12.44 90.2025 13.04 91.2425 13.04C92.2825 13.04 93.0025 12.26 93.0025 10.7V5.68C93.0025 5.5 93.1225 5.38 93.3225 5.38H96.2825C96.4825 5.38 96.6025 5.5 96.6025 5.68V15.68C96.6025 15.88 96.4825 16 96.2825 16H93.7825C93.5825 16 93.4425 15.9 93.4425 15.68L93.4025 14.72C92.6225 15.72 91.4625 16.2 90.0625 16.2ZM102.818 16.2C99.8578 16.2 97.8778 13.98 97.8778 10.68C97.8778 7.38 99.8578 5.18 102.818 5.18C104.158 5.18 105.238 5.7 105.998 6.62L106.038 5.68C106.038 5.48 106.178 5.38 106.358 5.38H108.878C109.078 5.38 109.198 5.5 109.198 5.68V15.68C109.198 15.88 109.078 16 108.878 16H106.358C106.178 16 106.038 15.88 106.038 15.68L105.998 14.74C105.238 15.68 104.158 16.2 102.818 16.2ZM103.698 13.04C104.998 13.04 105.878 12.06 105.878 10.68C105.878 9.3 104.998 8.34 103.698 8.34C102.398 8.34 101.518 9.3 101.518 10.68C101.518 12.06 102.398 13.04 103.698 13.04ZM111.343 16C111.143 16 111.023 15.88 111.023 15.68V1.32C111.023 1.12 111.143 0.999999 111.343 0.999999H114.303C114.503 0.999999 114.623 1.12 114.623 1.32V15.68C114.623 15.88 114.503 16 114.303 16H111.343ZM120.701 16C120.501 16 120.381 15.88 120.381 15.68V1.64C120.381 1.44 120.501 1.32 120.701 1.32H126.121C129.861 1.32 131.321 2.9 131.321 5.16C131.321 6.54 130.621 7.68 129.261 8.26C131.141 8.78 132.061 10.08 132.061 11.7C132.061 14.44 130.281 16 126.061 16H120.701ZM126.021 4.32H124.001V7.16H126.021C126.981 7.16 127.681 6.7 127.681 5.74C127.681 4.78 126.981 4.32 126.021 4.32ZM126.281 9.9H124.001V13H126.281C127.481 13 128.241 12.48 128.241 11.44C128.241 10.4 127.481 9.9 126.281 9.9ZM138.005 16.2C135.045 16.2 133.065 13.98 133.065 10.68C133.065 7.38 135.045 5.18 138.005 5.18C139.345 5.18 140.425 5.7 141.185 6.62L141.225 5.68C141.225 5.48 141.365 5.38 141.545 5.38H144.065C144.265 5.38 144.385 5.5 144.385 5.68V15.68C144.385 15.88 144.265 16 144.065 16H141.545C141.365 16 141.225 15.88 141.225 15.68L141.185 14.74C140.425 15.68 139.345 16.2 138.005 16.2ZM138.885 13.04C140.185 13.04 141.065 12.06 141.065 10.68C141.065 9.3 140.185 8.34 138.885 8.34C137.585 8.34 136.705 9.3 136.705 10.68C136.705 12.06 137.585 13.04 138.885 13.04ZM151.171 16.2C147.791 16.2 145.671 13.96 145.671 10.68C145.671 7.42 147.791 5.18 151.171 5.18C153.551 5.18 155.451 6.16 156.231 8.44C156.291 8.64 156.211 8.8 156.011 8.84L153.531 9.54C153.351 9.58 153.211 9.52 153.111 9.34C152.731 8.64 152.131 8.34 151.371 8.34C150.011 8.34 149.331 9.36 149.331 10.68C149.331 12 150.011 13.04 151.371 13.04C152.111 13.04 152.771 12.72 153.111 11.98C153.211 11.8 153.331 11.72 153.511 11.76L156.211 12.44C156.411 12.48 156.491 12.64 156.411 12.84C155.591 15.12 153.571 16.2 151.171 16.2ZM157.906 16C157.706 16 157.586 15.88 157.586 15.68V1.32C157.586 1.12 157.706 0.999999 157.906 0.999999H160.866C161.066 0.999999 161.186 1.12 161.186 1.32V8.94L164.146 5.56C164.266 5.42 164.386 5.38 164.526 5.38H168.026C168.286 5.38 168.386 5.56 168.186 5.76L165.026 9.04L168.606 15.62C168.726 15.84 168.646 16 168.386 16H165.066C164.886 16 164.766 15.94 164.686 15.78L162.506 11.66L161.186 13.02V15.68C161.186 15.88 161.066 16 160.866 16H157.906ZM174.018 20.56C171.518 20.56 169.578 19.4 168.838 17.46C168.758 17.26 168.838 17.14 169.038 17.08L171.338 16.36C171.498 16.3 171.638 16.36 171.758 16.52C172.178 17.12 172.818 17.56 173.918 17.56C175.298 17.56 176.278 16.88 176.278 15.5V15C175.558 15.66 174.598 16.02 173.498 16.02C170.538 16.02 168.558 13.78 168.558 10.6C168.558 7.4 170.538 5.18 173.498 5.18C174.818 5.18 175.918 5.7 176.678 6.62L176.718 5.68C176.718 5.48 176.858 5.38 177.038 5.38H179.558C179.758 5.38 179.878 5.5 179.878 5.68V14.96C179.878 18.86 177.338 20.56 174.018 20.56ZM174.378 13.04C175.658 13.04 176.558 12.06 176.558 10.68C176.558 9.3 175.658 8.34 174.378 8.34C173.098 8.34 172.198 9.3 172.198 10.68C172.198 12.06 173.098 13.04 174.378 13.04ZM182.023 16C181.823 16 181.703 15.88 181.703 15.68V5.68C181.703 5.5 181.823 5.38 182.023 5.38H184.523C184.723 5.38 184.863 5.48 184.863 5.68L184.923 6.76C185.643 5.7 186.783 5.24 188.043 5.24C188.323 5.24 188.583 5.26 188.803 5.32C188.983 5.38 189.083 5.5 189.083 5.68V8.42C189.083 8.62 188.943 8.72 188.723 8.68C188.443 8.64 188.123 8.58 187.703 8.58C186.643 8.58 185.303 9.26 185.303 10.82V15.68C185.303 15.88 185.183 16 184.983 16H182.023ZM195.233 16.2C191.693 16.2 189.413 13.94 189.413 10.68C189.413 7.44 191.693 5.18 195.233 5.18C198.773 5.18 201.053 7.44 201.053 10.68C201.053 13.94 198.773 16.2 195.233 16.2ZM195.233 13.04C196.533 13.04 197.413 12.06 197.413 10.68C197.413 9.3 196.533 8.34 195.233 8.34C193.933 8.34 193.053 9.3 193.053 10.68C193.053 12.06 193.933 13.04 195.233 13.04ZM206.164 16.2C203.664 16.2 202.244 14.72 202.244 12.3V5.68C202.244 5.5 202.364 5.38 202.564 5.38H205.524C205.724 5.38 205.844 5.5 205.844 5.68V10.96C205.844 12.44 206.304 13.04 207.344 13.04C208.384 13.04 209.104 12.26 209.104 10.7V5.68C209.104 5.5 209.224 5.38 209.424 5.38H212.384C212.584 5.38 212.704 5.5 212.704 5.68V15.68C212.704 15.88 212.584 16 212.384 16H209.884C209.684 16 209.544 15.9 209.544 15.68L209.504 14.72C208.724 15.72 207.564 16.2 206.164 16.2ZM214.839 16C214.639 16 214.519 15.88 214.519 15.68V5.68C214.519 5.5 214.639 5.38 214.839 5.38H217.339C217.539 5.38 217.679 5.48 217.679 5.68L217.719 6.62C218.499 5.66 219.679 5.18 221.079 5.18C223.599 5.18 225.019 6.64 225.019 9.08V15.68C225.019 15.88 224.899 16 224.699 16H221.739C221.539 16 221.419 15.88 221.419 15.68V10.42C221.419 8.94 220.959 8.34 219.899 8.34C218.859 8.34 218.119 9.12 218.119 10.68V15.68C218.119 15.88 217.999 16 217.799 16H214.839ZM231.154 16.2C228.194 16.2 226.214 13.98 226.214 10.68C226.214 7.38 228.194 5.18 231.154 5.18C232.274 5.18 233.214 5.54 233.934 6.2V1.32C233.934 1.12 234.054 0.999999 234.254 0.999999H237.214C237.414 0.999999 237.534 1.12 237.534 1.32V15.68C237.534 15.88 237.414 16 237.214 16H234.694C234.514 16 234.374 15.88 234.374 15.68L234.334 14.74C233.574 15.68 232.494 16.2 231.154 16.2ZM232.034 13.04C233.334 13.04 234.214 12.06 234.214 10.68C234.214 9.3 233.334 8.34 232.034 8.34C230.734 8.34 229.854 9.3 229.854 10.68C229.854 12.06 230.734 13.04 232.034 13.04ZM243.619 16C243.419 16 243.299 15.88 243.299 15.68V1.64C243.299 1.44 243.419 1.32 243.619 1.32H246.859C247.019 1.32 247.139 1.38 247.219 1.54L251.639 8.9L255.939 1.54C256.019 1.4 256.139 1.32 256.299 1.32H259.479C259.679 1.32 259.799 1.44 259.799 1.64V15.68C259.799 15.88 259.679 16 259.479 16H256.539C256.339 16 256.219 15.88 256.219 15.68V7.34L252.839 12.98C252.759 13.14 252.639 13.2 252.479 13.2H250.619C250.459 13.2 250.339 13.14 250.259 12.98L246.879 7.48V15.68C246.879 15.88 246.759 16 246.559 16H243.619ZM266.275 16.2C263.315 16.2 261.335 13.98 261.335 10.68C261.335 7.38 263.315 5.18 266.275 5.18C267.615 5.18 268.695 5.7 269.455 6.62L269.495 5.68C269.495 5.48 269.635 5.38 269.815 5.38H272.335C272.535 5.38 272.655 5.5 272.655 5.68V15.68C272.655 15.88 272.535 16 272.335 16H269.815C269.635 16 269.495 15.88 269.495 15.68L269.455 14.74C268.695 15.68 267.615 16.2 266.275 16.2ZM267.155 13.04C268.455 13.04 269.335 12.06 269.335 10.68C269.335 9.3 268.455 8.34 267.155 8.34C265.855 8.34 264.975 9.3 264.975 10.68C264.975 12.06 265.855 13.04 267.155 13.04ZM274.8 16C274.6 16 274.48 15.88 274.48 15.68V1.32C274.48 1.12 274.6 0.999999 274.8 0.999999H277.76C277.96 0.999999 278.08 1.12 278.08 1.32V8.94L281.04 5.56C281.16 5.42 281.28 5.38 281.42 5.38H284.92C285.18 5.38 285.28 5.56 285.08 5.76L281.92 9.04L285.5 15.62C285.62 15.84 285.54 16 285.28 16H281.96C281.78 16 281.66 15.94 281.58 15.78L279.4 11.66L278.08 13.02V15.68C278.08 15.88 277.96 16 277.76 16H274.8ZM291.012 16.2C287.632 16.2 285.452 13.94 285.452 10.68C285.452 7.44 287.632 5.18 291.012 5.18C294.552 5.18 296.472 7.68 296.272 11.3C296.252 11.5 296.132 11.6 295.932 11.6H289.092C289.352 12.64 290.032 13.22 291.032 13.22C291.812 13.22 292.412 12.98 292.792 12.46C292.912 12.32 293.052 12.28 293.212 12.32L295.772 13.18C295.952 13.26 296.032 13.4 295.932 13.6C294.952 15.42 293.032 16.2 291.012 16.2ZM290.972 8C289.972 8 289.312 8.56 289.092 9.64H292.732C292.532 8.58 291.912 8 290.972 8ZM297.804 16C297.604 16 297.484 15.88 297.484 15.68V5.68C297.484 5.5 297.604 5.38 297.804 5.38H300.304C300.504 5.38 300.644 5.48 300.644 5.68L300.704 6.76C301.424 5.7 302.564 5.24 303.824 5.24C304.104 5.24 304.364 5.26 304.584 5.32C304.764 5.38 304.864 5.5 304.864 5.68V8.42C304.864 8.62 304.724 8.72 304.504 8.68C304.224 8.64 303.904 8.58 303.484 8.58C302.424 8.58 301.084 9.26 301.084 10.82V15.68C301.084 15.88 300.964 16 300.764 16H297.804Z" fill="currentColor"/>
</svg>
